<?xml version="1.0"?>
<svg xmlns="http://www.w3.org/2000/svg" viewBox="0 0 64 64">
    <path d="M 32 2 C 15.458 2 2 15.458 2 32 C 2 48.542 15.458 62 32 62 C 48.542 62 62 48.542 62 32 C 62 15.458 48.542 2 32 2 z M 32 4 C 47.439 4 60 16.561 60 32 C 60 43.093 53.515672 52.700469 44.138672 57.230469 L 43.851562 52.859375 C 51.357562 48.589375 56 40.664 56 32 C 56 24.571 52.641156 17.680703 46.785156 13.095703 C 46.350156 12.754703 45.723813 12.830625 45.382812 13.265625 C 45.041812 13.700625 45.118734 14.328922 45.552734 14.669922 C 50.921734 18.873922 54 25.19 54 32 C 54 39.616 50.092125 46.616859 43.703125 50.630859 L 43.03125 40.4375 L 46.837891 37.228516 C 48.231891 36.052516 48.874625 34.209875 48.515625 32.421875 L 46.142578 20.605469 C 45.955578 19.675469 45.130641 19 44.181641 19 L 35.818359 19 C 34.870359 19 34.045422 19.674516 33.857422 20.603516 L 31.484375 32.324219 C 31.126375 34.091219 31.751234 35.919656 33.115234 37.097656 L 36.970703 40.429688 L 36.105469 53.609375 C 33.552469 54.089375 30.886219 54.1165 28.324219 53.6875 L 28 46.972656 L 28 20.476562 C 28 19.811563 27.670094 19.192312 27.121094 18.820312 C 26.571094 18.447312 25.875812 18.372141 25.257812 18.619141 L 24.171875 19.054688 C 19.207875 21.040687 16 25.778 16 31.125 L 16 41.646484 C 16 42.880484 16.740719 43.972641 17.886719 44.431641 L 20.970703 45.664062 L 20.738281 50.896484 C 14.084281 46.931484 10 39.81 10 32 C 10 19.869 19.869 10 32 10 C 33.174 10 34.351047 10.092391 35.498047 10.275391 C 36.035047 10.362391 36.555578 9.9922656 36.642578 9.4472656 C 36.729578 8.9022656 36.359453 8.3877812 35.814453 8.3007812 C 34.562453 8.1017813 33.279 8 32 8 C 18.766 8 8 18.766 8 32 C 8 40.875 12.836672 48.933766 20.638672 53.134766 L 20.443359 57.494141 C 10.755359 53.085141 4 43.32 4 32 C 4 16.561 16.561 4 32 4 z M 40.009766 9.4492188 C 39.620562 9.4661406 39.260734 9.7118594 39.115234 10.099609 C 38.922234 10.616609 39.184172 11.192719 39.701172 11.386719 C 40.530172 11.695719 41.349672 12.060703 42.138672 12.470703 C 42.286672 12.547703 42.444609 12.582031 42.599609 12.582031 C 42.960609 12.582031 43.310281 12.386922 43.488281 12.044922 C 43.743281 11.554922 43.5525 10.951312 43.0625 10.695312 C 42.2015 10.247312 41.307344 9.8497187 40.402344 9.5117188 C 40.273094 9.4637187 40.1395 9.4435781 40.009766 9.4492188 z M 26 20.476562 L 26 45.523438 L 19.693359 43 L 20 43 C 20.552 43 21 42.552 21 42 C 21 41.448 20.552 41 20 41 L 18 41 L 18 38 L 20 38 C 20.552 38 21 37.552 21 37 C 21 36.448 20.552 36 20 36 L 18 36 L 18 33 L 20 33 C 20.552 33 21 32.552 21 32 C 21 31.448 20.552 31 20 31 L 18.005859 31 C 18.016859 29.964 18.170172 28.958 18.451172 28 L 20 28 C 20.552 28 21 27.552 21 27 C 21 26.448 20.552 26 20 26 L 19.263672 26 C 20.452672 23.736 22.416062 21.909156 24.914062 20.910156 L 26 20.476562 z M 35.818359 21 L 37 21 L 37 32 C 37 32.552 37.448 33 38 33 C 38.552 33 39 32.552 39 32 L 39 21 L 41 21 L 41 32 C 41 32.552 41.448 33 42 33 C 42.552 33 43 32.552 43 32 L 43 21 L 44.181641 21 L 46.554688 32.816406 C 46.769688 33.889406 46.383875 34.993219 45.546875 35.699219 L 41.355469 39.236328 C 41.335469 39.252328 41.326594 39.275969 41.308594 39.292969 C 41.258594 39.341969 41.220641 39.395125 41.181641 39.453125 C 41.146641 39.505125 41.113844 39.556281 41.089844 39.613281 C 41.065844 39.670281 41.052062 39.729016 41.039062 39.791016 C 41.024062 39.859016 41.011719 39.922187 41.011719 39.992188 C 41.011719 40.017187 40.999953 40.040406 41.001953 40.066406 L 41.130859 42 L 38.871094 42 L 38.998047 40.064453 C 39.000047 40.040453 38.990234 40.020094 38.990234 39.996094 C 38.990234 39.927094 38.976891 39.863875 38.962891 39.796875 C 38.949891 39.734875 38.938063 39.674187 38.914062 39.617188 C 38.891062 39.561188 38.856266 39.512938 38.822266 39.460938 C 38.783266 39.401938 38.745312 39.346875 38.695312 39.296875 C 38.679313 39.280875 38.671297 39.259141 38.654297 39.244141 L 34.423828 35.585938 C 33.605828 34.878937 33.231312 33.779703 33.445312 32.720703 L 35.818359 21 z M 38.740234 44 L 41.261719 44 L 42.189453 58.072266 C 40.755453 58.635266 39.267469 59.087203 37.730469 59.408203 L 38.740234 44 z M 22.9375 46.451172 L 26.03125 47.689453 L 26.599609 59.472656 C 25.139609 59.186656 23.718609 58.790156 22.349609 58.285156 C 22.387609 58.187156 22.420781 58.085609 22.425781 57.974609 L 22.9375 46.451172 z M 35.970703 55.671875 L 35.703125 59.748047 C 34.491125 59.909047 33.256 60 32 60 C 30.852 60 29.721375 59.922109 28.609375 59.787109 C 28.609375 59.773109 28.616234 59.760094 28.615234 59.746094 L 28.423828 55.732422 C 29.603828 55.908422 30.801 56 32 56 C 33.333 56 34.663703 55.889875 35.970703 55.671875 z"/>
</svg>
